# xmcd
#
# Track frame offsets: 
#        150
#        19125
#        35785
#        52477
#        66215
#        80461
#        96498
#        117571
#        134189
#        147694
#        160786
#        183612
#        197448
#        214524
#        232925
#        249188
#        263367
#        282451
#        297103
#        317550
#
# Disc length: 4411 seconds
#
# Revision: 0
# Processed by: cddbd v1.5.2PL0 Copyright (c) Steve Scherf et al.
# Submitted via: ExactAudioCopy v1.0b4
#
DISCID=37113914
DTITLE=Dan Seals - The Definitive Collection
DYEAR=2013
DGENRE=Country
TTITLE0=Still a Little Bit of Love
TTITLE1=Fool Me Once, Fool Me Twice
TTITLE2=A Heartache Just Around the Bend
TTITLE3=Oh These Nights
TTITLE4=Tonight is for The Lover in You
TTITLE5=She's Leaving
TTITLE6=Long Long Island Nights
TTITLE7=The Loving Proof
TTITLE8=On a Night Like This
TTITLE9=She Thinks I Still Care
TTITLE10=In San Antone
TTITLE11=Who's Gonna Keep Me Warm
TTITLE12=Factory Town
TTITLE13=Twenty-Four Hour Love
TTITLE14=A Heart in Search of Love
TTITLE15=Water under the bridge
TTITLE16=Wood
TTITLE17=Those
TTITLE18=Up on a Hill
TTITLE19=Dan Seals (Duet With Emmylou Harris) - Lullaby
EXTD=
EXTT0=
EXTT1=
EXTT2=
EXTT3=
EXTT4=
EXTT5=
EXTT6=
EXTT7=
EXTT8=
EXTT9=
EXTT10=
EXTT11=
EXTT12=
EXTT13=
EXTT14=
EXTT15=
EXTT16=
EXTT17=
EXTT18=
EXTT19=
PLAYORDER=
